<svg width="15" height="15" viewBox="0 0 15 15" fill="none" xmlns="http://www.w3.org/2000/svg">
<path d="M6.85266 0.983398C6.96002 0.725277 7.32568 0.725277 7.43303 0.983397L9.14737 5.10515C9.19263 5.21397 9.29496 5.28832 9.41244 5.29774L13.8622 5.65447C14.1409 5.67681 14.2539 6.02457 14.0416 6.20644L10.6513 9.11056C10.5618 9.18723 10.5227 9.30753 10.5501 9.42217L11.5858 13.7644C11.6507 14.0363 11.3549 14.2513 11.1163 14.1055L7.30667 11.7786C7.20609 11.7172 7.0796 11.7172 6.97903 11.7786L3.16939 14.1055C2.93082 14.2513 2.635 14.0363 2.69986 13.7644L3.73564 9.42217C3.76299 9.30753 3.7239 9.18723 3.6344 9.11056L0.244133 6.20644C0.0318216 6.02457 0.144815 5.67681 0.423478 5.65447L4.87326 5.29774C4.99073 5.28832 5.09307 5.21397 5.13833 5.10515L6.85266 0.983398Z" fill="#F9B915"/>
</svg>
