<svg width="15" height="15" viewBox="0 0 15 15" fill="none" xmlns="http://www.w3.org/2000/svg">
<path d="M6.85263 0.983428C6.95999 0.725308 7.32565 0.725307 7.433 0.983428L9.14734 5.10518C9.1926 5.214 9.29493 5.28835 9.41241 5.29777L13.8622 5.6545C14.1409 5.67684 14.2538 6.0246 14.0415 6.20647L10.6513 9.11059C10.5618 9.18726 10.5227 9.30756 10.55 9.4222L11.5858 13.7644C11.6507 14.0364 11.3548 14.2513 11.1163 14.1056L7.30664 11.7787C7.20606 11.7172 7.07957 11.7172 6.97899 11.7787L3.16936 14.1056C2.93079 14.2513 2.63497 14.0364 2.69983 13.7644L3.73561 9.4222C3.76296 9.30756 3.72387 9.18726 3.63436 9.11059L0.244103 6.20647C0.0317911 6.0246 0.144785 5.67684 0.423448 5.6545L4.87323 5.29777C4.9907 5.28835 5.09304 5.214 5.1383 5.10518L6.85263 0.983428Z" fill="url(#paint0_linear_1_21)"/>
<defs>
<linearGradient id="paint0_linear_1_21" x1="0.228532" y1="6.88574" x2="14.0571" y2="7.51431" gradientUnits="userSpaceOnUse">
<stop offset="0.66" stop-color="#F9B915"/>
<stop offset="0.6601" stop-color="#E7E5DF"/>
</linearGradient>
</defs>
</svg>
